<mxfile host="app.diagrams.net" agent="Mozilla/5.0 (Macintosh; Intel Mac OS X 10_15_7) AppleWebKit/537.36 (KHTML, like Gecko) Chrome/136.0.0.0 Safari/537.36" version="27.1.4">
  <diagram name="Duplicate Check Flow" id="5sd3W7gOwoMZETkUUy8N">
    <mxGraphModel dx="1033" dy="566" grid="1" gridSize="10" guides="1" tooltips="1" connect="1" arrows="1" fold="1" page="1" pageScale="1" pageWidth="827" pageHeight="1169" math="0" shadow="0">
      <root>
        <mxCell id="0" />
        <mxCell id="1" parent="0" />
        <mxCell id="SSAhuf66IrHfdAtE-sHf-7" style="edgeStyle=orthogonalEdgeStyle;rounded=0;orthogonalLoop=1;jettySize=auto;html=1;entryX=0.5;entryY=0;entryDx=0;entryDy=0;" edge="1" parent="1" source="SSAhuf66IrHfdAtE-sHf-1" target="SSAhuf66IrHfdAtE-sHf-3">
          <mxGeometry relative="1" as="geometry" />
        </mxCell>
        <mxCell id="SSAhuf66IrHfdAtE-sHf-1" value="&lt;font&gt;Start&lt;/font&gt;" style="ellipse;whiteSpace=wrap;html=1;fontSize=12;" vertex="1" parent="1">
          <mxGeometry x="280" y="30" width="120" height="50" as="geometry" />
        </mxCell>
        <mxCell id="SSAhuf66IrHfdAtE-sHf-2" value="&lt;font&gt;End&lt;/font&gt;" style="ellipse;whiteSpace=wrap;html=1;fontSize=12;" vertex="1" parent="1">
          <mxGeometry x="280" y="610" width="120" height="50" as="geometry" />
        </mxCell>
        <mxCell id="SSAhuf66IrHfdAtE-sHf-8" style="edgeStyle=orthogonalEdgeStyle;rounded=0;orthogonalLoop=1;jettySize=auto;html=1;entryX=0.5;entryY=0;entryDx=0;entryDy=0;" edge="1" parent="1" source="SSAhuf66IrHfdAtE-sHf-3" target="SSAhuf66IrHfdAtE-sHf-5">
          <mxGeometry relative="1" as="geometry" />
        </mxCell>
        <mxCell id="SSAhuf66IrHfdAtE-sHf-3" value="Create Consumer Payload" style="rounded=0;whiteSpace=wrap;html=1;" vertex="1" parent="1">
          <mxGeometry x="250" y="110" width="180" height="40" as="geometry" />
        </mxCell>
        <mxCell id="SSAhuf66IrHfdAtE-sHf-13" style="edgeStyle=orthogonalEdgeStyle;rounded=0;orthogonalLoop=1;jettySize=auto;html=1;entryX=1;entryY=0.5;entryDx=0;entryDy=0;" edge="1" parent="1" source="SSAhuf66IrHfdAtE-sHf-4" target="SSAhuf66IrHfdAtE-sHf-2">
          <mxGeometry relative="1" as="geometry" />
        </mxCell>
        <mxCell id="SSAhuf66IrHfdAtE-sHf-4" value="Throw Error: &quot;Patient already exists." style="rounded=0;whiteSpace=wrap;html=1;" vertex="1" parent="1">
          <mxGeometry x="380" y="530" width="180" height="40" as="geometry" />
        </mxCell>
        <mxCell id="SSAhuf66IrHfdAtE-sHf-15" style="edgeStyle=orthogonalEdgeStyle;rounded=0;orthogonalLoop=1;jettySize=auto;html=1;entryX=0.5;entryY=0;entryDx=0;entryDy=0;exitX=0;exitY=0.5;exitDx=0;exitDy=0;" edge="1" parent="1" source="SSAhuf66IrHfdAtE-sHf-5" target="SSAhuf66IrHfdAtE-sHf-9">
          <mxGeometry relative="1" as="geometry" />
        </mxCell>
        <mxCell id="SSAhuf66IrHfdAtE-sHf-17" style="edgeStyle=orthogonalEdgeStyle;rounded=0;orthogonalLoop=1;jettySize=auto;html=1;entryX=0.5;entryY=0;entryDx=0;entryDy=0;exitX=1;exitY=0.5;exitDx=0;exitDy=0;" edge="1" parent="1" source="SSAhuf66IrHfdAtE-sHf-5" target="SSAhuf66IrHfdAtE-sHf-16">
          <mxGeometry relative="1" as="geometry" />
        </mxCell>
        <mxCell id="SSAhuf66IrHfdAtE-sHf-5" value="Exists by Same&amp;nbsp;&lt;div&gt;Name and DOB?&lt;/div&gt;" style="rhombus;whiteSpace=wrap;html=1;" vertex="1" parent="1">
          <mxGeometry x="250" y="190" width="180" height="90" as="geometry" />
        </mxCell>
        <mxCell id="SSAhuf66IrHfdAtE-sHf-12" style="edgeStyle=orthogonalEdgeStyle;rounded=0;orthogonalLoop=1;jettySize=auto;html=1;entryX=0;entryY=0.5;entryDx=0;entryDy=0;" edge="1" parent="1" source="SSAhuf66IrHfdAtE-sHf-9" target="SSAhuf66IrHfdAtE-sHf-2">
          <mxGeometry relative="1" as="geometry" />
        </mxCell>
        <mxCell id="SSAhuf66IrHfdAtE-sHf-9" value="Create Consumer." style="rounded=0;whiteSpace=wrap;html=1;" vertex="1" parent="1">
          <mxGeometry x="120" y="530" width="180" height="40" as="geometry" />
        </mxCell>
        <mxCell id="SSAhuf66IrHfdAtE-sHf-18" style="edgeStyle=orthogonalEdgeStyle;rounded=0;orthogonalLoop=1;jettySize=auto;html=1;exitX=0;exitY=0.5;exitDx=0;exitDy=0;" edge="1" parent="1" source="SSAhuf66IrHfdAtE-sHf-16">
          <mxGeometry relative="1" as="geometry">
            <mxPoint x="210" y="530" as="targetPoint" />
            <Array as="points">
              <mxPoint x="210" y="325" />
            </Array>
          </mxGeometry>
        </mxCell>
        <mxCell id="SSAhuf66IrHfdAtE-sHf-24" style="edgeStyle=orthogonalEdgeStyle;rounded=0;orthogonalLoop=1;jettySize=auto;html=1;entryX=0.5;entryY=0;entryDx=0;entryDy=0;exitX=1;exitY=0.5;exitDx=0;exitDy=0;" edge="1" parent="1" source="SSAhuf66IrHfdAtE-sHf-16" target="SSAhuf66IrHfdAtE-sHf-23">
          <mxGeometry relative="1" as="geometry" />
        </mxCell>
        <mxCell id="SSAhuf66IrHfdAtE-sHf-16" value="Exists by Same&lt;div&gt;&amp;nbsp;DOB?&lt;/div&gt;" style="rhombus;whiteSpace=wrap;html=1;" vertex="1" parent="1">
          <mxGeometry x="380" y="280" width="180" height="90" as="geometry" />
        </mxCell>
        <mxCell id="SSAhuf66IrHfdAtE-sHf-19" value="No" style="text;html=1;align=center;verticalAlign=middle;whiteSpace=wrap;rounded=0;" vertex="1" parent="1">
          <mxGeometry x="210" y="230" width="60" height="30" as="geometry" />
        </mxCell>
        <mxCell id="SSAhuf66IrHfdAtE-sHf-20" value="No" style="text;html=1;align=center;verticalAlign=middle;whiteSpace=wrap;rounded=0;" vertex="1" parent="1">
          <mxGeometry x="340" y="320" width="60" height="30" as="geometry" />
        </mxCell>
        <mxCell id="SSAhuf66IrHfdAtE-sHf-21" value="Yes" style="text;html=1;align=center;verticalAlign=middle;whiteSpace=wrap;rounded=0;" vertex="1" parent="1">
          <mxGeometry x="414" y="210" width="60" height="30" as="geometry" />
        </mxCell>
        <mxCell id="SSAhuf66IrHfdAtE-sHf-26" style="edgeStyle=orthogonalEdgeStyle;rounded=0;orthogonalLoop=1;jettySize=auto;html=1;exitX=0;exitY=0.5;exitDx=0;exitDy=0;entryX=0.5;entryY=0;entryDx=0;entryDy=0;" edge="1" parent="1" source="SSAhuf66IrHfdAtE-sHf-23" target="SSAhuf66IrHfdAtE-sHf-9">
          <mxGeometry relative="1" as="geometry" />
        </mxCell>
        <mxCell id="SSAhuf66IrHfdAtE-sHf-28" style="edgeStyle=orthogonalEdgeStyle;rounded=0;orthogonalLoop=1;jettySize=auto;html=1;entryX=0.5;entryY=0;entryDx=0;entryDy=0;exitX=1;exitY=0.5;exitDx=0;exitDy=0;" edge="1" parent="1" source="SSAhuf66IrHfdAtE-sHf-23" target="SSAhuf66IrHfdAtE-sHf-4">
          <mxGeometry relative="1" as="geometry" />
        </mxCell>
        <mxCell id="SSAhuf66IrHfdAtE-sHf-23" value="Exists by Similar&amp;nbsp;&lt;div&gt;Address?&lt;/div&gt;" style="rhombus;whiteSpace=wrap;html=1;" vertex="1" parent="1">
          <mxGeometry x="500" y="350" width="180" height="90" as="geometry" />
        </mxCell>
        <mxCell id="SSAhuf66IrHfdAtE-sHf-25" value="Yes" style="text;html=1;align=center;verticalAlign=middle;whiteSpace=wrap;rounded=0;" vertex="1" parent="1">
          <mxGeometry x="540" y="300" width="60" height="30" as="geometry" />
        </mxCell>
        <mxCell id="SSAhuf66IrHfdAtE-sHf-27" value="No" style="text;html=1;align=center;verticalAlign=middle;whiteSpace=wrap;rounded=0;" vertex="1" parent="1">
          <mxGeometry x="460" y="390" width="60" height="30" as="geometry" />
        </mxCell>
        <mxCell id="SSAhuf66IrHfdAtE-sHf-29" value="Yes" style="text;html=1;align=center;verticalAlign=middle;whiteSpace=wrap;rounded=0;" vertex="1" parent="1">
          <mxGeometry x="660" y="370" width="60" height="30" as="geometry" />
        </mxCell>
        <mxCell id="SSAhuf66IrHfdAtE-sHf-30" value="Using Jaro Winkler Similarity" style="text;html=1;align=center;verticalAlign=middle;whiteSpace=wrap;rounded=0;" vertex="1" parent="1">
          <mxGeometry x="500" y="440" width="180" height="30" as="geometry" />
        </mxCell>
      </root>
    </mxGraphModel>
  </diagram>
</mxfile>
